<?xml version="1.0" encoding="UTF-8" standalone="no"?>
<!-- Created with Inkscape (http://www.inkscape.org/) -->

<svg
   width="69.641716mm"
   height="54.859562mm"
   viewBox="0 0 69.641716 54.859562"
   version="1.1"
   id="svg302"
   inkscape:version="1.2.2 (732a01da63, 2022-12-09, custom)"
   sodipodi:docname="logo-mobile.svg"
   xmlns:inkscape="http://www.inkscape.org/namespaces/inkscape"
   xmlns:sodipodi="http://sodipodi.sourceforge.net/DTD/sodipodi-0.dtd"
   xmlns="http://www.w3.org/2000/svg"
   xmlns:svg="http://www.w3.org/2000/svg">
  <sodipodi:namedview
     id="namedview304"
     pagecolor="#ffffff"
     bordercolor="#000000"
     borderopacity="0.25"
     inkscape:showpageshadow="2"
     inkscape:pageopacity="0.0"
     inkscape:pagecheckerboard="0"
     inkscape:deskcolor="#d1d1d1"
     inkscape:document-units="mm"
     showgrid="false"
     inkscape:zoom="0.75722503"
     inkscape:cx="6.603057"
     inkscape:cy="-14.526725"
     inkscape:window-width="1920"
     inkscape:window-height="1043"
     inkscape:window-x="1920"
     inkscape:window-y="0"
     inkscape:window-maximized="1"
     inkscape:current-layer="layer1" />
  <defs
     id="defs299" />
  <g
     inkscape:label="Layer 1"
     inkscape:groupmode="layer"
     id="layer1"
     transform="translate(-33.959905,-97.566997)">
    <path
       style="fill:#000000;stroke-width:0.264583"
       id="path363"
       d="m 86.49042,97.566997 c -1.372455,2.053887 -2.703759,4.163923 -4.331552,6.031053 -0.396362,0.45465 -0.829807,0.87558 -1.244708,1.31337 -2.090291,1.92951 -4.185677,2.98367 -7.010212,3.36359 -0.588249,0.0791 -1.182717,0.10179 -1.774077,0.15269 -3.283653,0.167 -6.300044,-0.95683 -9.206674,-2.34907 -0.370597,-0.20098 -1.481148,-0.80617 -1.111792,-0.60292 3.154412,1.73576 2.780889,1.6547 1.424834,0.60296 -0.57848,-0.44865 -1.117836,-0.94718 -1.70574,-1.38342 -0.326318,-0.24213 -0.672409,-0.45642 -1.008613,-0.68463 -2.901971,-1.72646 -5.255376,-3.2026 -8.591595,-3.42928 -1.222872,-0.0831 -2.370497,0.0492 -3.587421,0.14145 -2.300621,0.31308 -4.622692,0.70835 -6.726873,1.7407 -1.094721,0.53708 -1.487188,0.87624 -2.468449,1.57591 -2.615512,2.03664 -3.553261,4.5952 -4.394155,7.69215 -0.359833,1.55063 -0.580461,3.12643 -0.793488,4.70198 0,0 3.37058,1.76969 3.37058,1.76969 v 0 c 0.17385,-1.56818 0.35569,-3.13762 0.727247,-4.67473 0.822754,-2.95221 1.779522,-5.52296 4.297588,-7.44806 0.951386,-0.66997 1.346208,-1.00511 2.4047,-1.51717 2.073272,-1.00297 4.363447,-1.38282 6.628389,-1.65903 2.363996,-0.14039 4.111323,-0.15144 6.394307,0.5654 0.431427,0.13547 1.588468,0.79267 1.273072,0.46862 -0.577504,-0.59333 -1.402154,-0.88102 -2.103231,-1.32154 0.336706,0.21413 0.686244,0.40929 1.010118,0.64237 0.889302,0.63999 1.645549,1.49582 2.575772,2.07948 1.398121,0.87724 2.826353,1.70587 4.254227,2.5338 0.359648,0.20853 0.737918,0.38316 1.106876,0.57474 2.94294,1.34944 5.990797,2.39183 9.283933,2.15687 1.426726,-0.13821 2.118548,-0.14618 3.50016,-0.50754 2.103151,-0.55008 3.862094,-1.76373 5.430057,-3.23672 0.42052,-0.44614 0.858636,-0.87633 1.261567,-1.33842 1.63526,-1.87536 2.959468,-3.99795 4.505974,-5.943078 0,0 -3.390821,-2.011215 -3.390821,-2.011215 z" />
    <path
       style="fill:#000000;stroke-width:0.264583"
       id="path367"
       d="m 67.532228,110.14562 c -2.369629,3.42423 -3.773458,7.38858 -5.307571,11.2292 -1.939504,4.93654 -3.954052,9.84269 -6.071147,14.70565 -0.976437,2.52008 -2.217785,4.91663 -3.407953,7.33806 -0.814424,1.66542 -1.63957,3.3289 -2.651813,4.88437 -0.67874,1.03474 -1.691917,1.50055 -2.863863,1.73069 -0.746691,0.0971 -1.501759,0.084 -2.252956,0.0748 0,0 3.188414,2.31817 3.188414,2.31817 v 0 c 0.768501,-0.004 1.544209,-7.9e-4 2.301026,-0.15228 1.22958,-0.32674 2.28536,-0.90723 2.985082,-2.014 0.984322,-1.58932 1.848453,-3.2517 2.657213,-4.93644 1.122286,-2.46359 2.389264,-4.8627 3.296833,-7.42021 1.990645,-4.9235 3.973107,-9.85004 5.935125,-14.78506 1.589633,-3.76595 3.018184,-7.71244 5.559917,-10.9634 0,0 -3.368307,-2.00959 -3.368307,-2.00959 z" />
    <path
       style="fill:#000000;stroke-width:0.264583"
       id="path369"
       d="m 103.60162,115.02757 c -1.36315,-0.75409 -2.70081,-1.55624 -4.089454,-2.26228 -0.14561,-0.074 -2.026144,-0.6319 -2.109951,-0.65676 -1.184929,-0.35148 -2.362997,-0.6459 -3.573182,-0.89596 -2.254044,-0.43601 -4.558475,-0.4751 -6.84629,-0.53948 -1.979321,0.22537 -3.738472,1.10267 -5.373817,2.19015 -0.675499,0.52676 -1.43842,1.00305 -1.911874,1.73791 -0.270406,0.41971 -0.365757,0.73404 -0.548724,1.19963 -0.53126,1.3685 -0.7668,2.82452 -0.939152,4.2752 -0.120907,1.00846 -0.130294,2.00728 0.06746,3.00402 0.135999,0.46271 0.352396,0.94096 0.787503,1.19823 3.414864,2.0191 2.358464,1.56871 3.874842,2.19742 1.117579,0.30658 2.212893,0.68427 3.299309,1.08579 1.237787,0.53444 3.793291,2.0038 -1.549255,-0.97256 -0.183956,-0.10249 0.36026,0.2182 0.537835,0.33138 0.634574,0.40445 0.452837,0.28342 1.022985,0.75282 1.001212,0.84772 2.063787,1.61605 3.081329,2.44551 0.722591,0.58278 1.504839,1.09939 2.112291,1.81098 0.328311,0.38459 0.551714,0.74522 0.834654,1.1662 0.870937,1.22358 1.34393,2.58449 1.592625,4.04986 0.191119,1.54189 0.18084,3.09958 0.183325,4.65059 -0.0044,1.06359 0.03347,2.17034 -0.330549,3.18925 -0.198478,0.55555 -0.38014,0.77686 -0.696675,1.27214 -1.069446,1.34998 -2.633937,1.97216 -4.192468,2.56935 -1.822014,0.69377 -3.752485,1.00148 -5.683277,1.19312 -1.534101,0.11576 -3.073884,0.10459 -4.611256,0.11095 -0.293626,-2e-4 -0.587748,0.0164 -0.88088,-5.2e-4 -0.34404,-0.02 -1.32911,-0.14455 -1.667012,-0.27784 -0.261991,-0.10334 -0.980041,-0.55481 -0.729105,-0.42694 2.673972,1.36257 3.300468,2.0397 1.796873,0.67823 -1.318765,-1.08899 -2.029894,-2.5136 -2.596465,-4.08769 -0.612984,-1.52385 -0.977066,-3.11569 -1.183531,-4.74007 -0.06943,-0.59121 -0.09689,-1.18559 -0.121031,-1.7799 0,0 -3.502398,-1.76606 -3.502398,-1.76606 v 0 c 0.02641,0.60759 0.05064,1.21594 0.127349,1.8199 0.208936,1.64646 0.543468,3.26903 1.156261,4.81862 0.570452,1.65649 1.169559,3.10648 2.549242,4.26783 1.787581,1.76535 0.750112,0.8481 4.80315,3.21478 0.250254,0.14613 0.520317,0.26184 0.797746,0.3456 0.829516,0.25043 1.737918,0.19584 2.589961,0.21549 1.548604,0.005 3.099263,0.003 4.642824,-0.14089 1.944518,-0.23749 3.883151,-0.59558 5.723209,-1.28707 1.635842,-0.63472 3.238537,-1.33387 4.343588,-2.76492 0.3517,-0.54976 0.52863,-0.75939 0.753941,-1.37553 0.383302,-1.0482 0.367112,-2.18561 0.37229,-3.28418 2.35e-4,-1.56639 0.02323,-3.13815 -0.144378,-4.69794 -0.214498,-1.51245 -0.648885,-2.92925 -1.527352,-4.20104 -0.811496,-1.28913 -1.593832,-2.25606 -2.901241,-3.08795 -1.009782,-0.83107 -2.034942,-1.62846 -3.070167,-2.42384 -0.480859,-0.46074 -0.966504,-0.81428 -1.542039,-1.1514 -1.689277,-0.98951 -3.333385,-2.12843 -5.170609,-2.84219 -1.101651,-0.40023 -2.229506,-0.72568 -3.321587,-1.14957 -1.346999,-0.7282 0.547007,0.29288 2.916639,1.69824 0.08809,0.0522 -0.192198,-0.0731 -0.28131,-0.12358 -0.321683,-0.18224 -0.51766,-0.45057 -0.649309,-0.79252 -0.251089,-0.95237 -0.24349,-1.92064 -0.14565,-2.89733 0.134903,-1.42312 0.342416,-2.85184 0.881219,-4.18609 0.154376,-0.38607 0.274346,-0.74707 0.502385,-1.09724 0.451213,-0.69286 1.193168,-1.13802 1.822522,-1.64647 1.579784,-1.05607 3.286929,-1.89528 5.219139,-2.0086 2.267886,0.0437 4.547409,0.11866 6.776704,0.57673 1.584176,0.34601 3.148798,0.75772 4.683578,1.28547 0.33345,0.11466 1.2739,0.58037 0.99117,0.36964 -0.81903,-0.61047 -1.74833,-1.05703 -2.622491,-1.58554 0,0 3.668531,1.42902 3.668531,1.42902 z" />
  </g>
</svg>
